<?xml version="1.0" encoding="UTF-8"?>
<svg width="209px" height="54px" viewBox="0 0 209 54" version="1.1" xmlns="http://www.w3.org/2000/svg" xmlns:xlink="http://www.w3.org/1999/xlink">
    <!-- Generator: Sketch 43.2 (39069) - http://www.bohemiancoding.com/sketch -->
    <title>logo</title>
    <desc>Created with Sketch.</desc>
    <defs>
        <polygon id="path-1" points="1.14865931e-19 0.363126626 1.14865931e-19 52.7970861 50.3438506 52.7970861 50.3438506 0.363126626 0 0.363126626"></polygon>
        <polygon id="path-3" points="50.3646159 52.7970861 0.0203414634 52.7970861 0.0203414634 0.363126626 50.3646159 0.363126626 50.3646159 52.7970861"></polygon>
        <polygon id="path-5" points="19.4049085 17.3145949 19.4049085 0.67764641 0.472515244 0.67764641 0.472515244 17.3145949 19.4049085 17.3145949"></polygon>
    </defs>
    <g id="Symbols" stroke="none" stroke-width="1" fill="none" fill-rule="evenodd">
        <g id="nav" transform="translate(0.000000, -20.000000)">
            <g id="logo">
                <g transform="translate(0.000000, 20.000000)">
                    <g id="Group-3" transform="translate(0.000000, 0.475090)">
                        <mask id="mask-2" fill="white">
                            <use xlink:href="#path-1"></use>
                        </mask>
                        <g id="Clip-2"></g>
                        <path d="M44.3405762,6.41467836 L44.3405762,3.8988553 C44.3405762,3.04991168 44.5372104,2.43813592 44.9347165,2.06771826 C45.331375,1.69562451 45.8585579,1.51460593 46.512875,1.51460593 C47.1671921,1.51460593 47.694375,1.69562451 48.0918811,2.06771826 C48.4876921,2.43813592 48.6868689,3.04991168 48.6868689,3.8988553 L48.6868689,13.833926 C48.6868689,14.7138775 48.4876921,15.3407381 48.0918811,15.7069655 C47.694375,16.0790593 47.1671921,16.26343 46.512875,16.26343 C45.9272104,16.26343 45.4347774,16.0924681 45.0372713,15.7530582 C44.6423079,15.4136484 44.4109238,14.8563458 44.3405762,14.089531 C44.1685213,11.7027675 42.5988384,9.58334158 39.6332226,7.73711966 C35.6310396,5.20704977 31.0787896,3.94410995 25.9730823,3.94410995 C22.6286067,3.94410995 19.469747,4.5575618 16.5058262,5.77524698 C14.2979299,6.65771256 12.5383933,7.73711966 11.2272165,9.01514436 C8.95151524,11.23346 7.14027744,13.6906197 5.79689329,16.3916515 C4.83067378,18.3786657 4.34925915,20.6288272 4.34925915,23.1262132 L4.34925915,29.3956577 C4.34925915,34.7357058 6.69276524,39.3776591 11.3840152,43.3156513 C16.0735701,47.2477772 21.5242348,49.2163542 27.7334665,49.2163542 C31.4559543,49.2163542 34.794497,48.5509433 37.7440091,47.2142552 C40.6918262,45.875891 43.5472591,43.8620593 46.3094604,41.1610274 C46.8925823,40.5618224 47.5468994,40.2668291 48.2724116,40.2668291 C48.8945213,40.2668291 49.3937348,40.419354 49.7742896,40.7336224 C50.1506067,41.0470527 50.3438506,41.4434499 50.3438506,41.9286803 C50.3438506,42.5815204 49.5996921,43.5779607 48.1181555,44.9129727 C45.2873018,47.5285236 42.1055579,49.4954246 38.5737713,50.8145137 C35.0360518,52.1411452 31.4559543,52.7973376 27.8360213,52.7973376 C24.6966555,52.7973376 21.5047409,52.2995365 18.2628201,51.3106387 C15.7820091,50.5413097 13.7292165,49.6454353 12.1078323,48.6205014 C10.4864482,47.5972436 8.4921372,45.8725388 6.13252744,43.4396826 C3.76783232,41.0110166 2.15492378,38.7675595 1.29549695,36.7076351 C0.432679878,34.6460346 -0.000423780488,32.3799501 -0.000423780488,29.9060295 L-0.000423780488,22.6150033 C-0.000423780488,19.0935215 1.14632622,15.4865586 3.4423689,11.8091997 C5.73671646,8.13016463 8.87353963,5.30007321 12.8579238,3.32562979 C16.8397652,1.35034833 21.1623262,0.363126626 25.8196738,0.363126626 C32.9925823,0.363126626 39.1662165,2.38198663 44.3405762,6.41467836" id="Fill-1" fill="#464747" mask="url(#mask-2)"></path>
                    </g>
                    <g id="Group-6" transform="translate(63.567073, 0.475090)">
                        <mask id="mask-4" fill="white">
                            <use xlink:href="#path-3"></use>
                        </mask>
                        <g id="Clip-5"></g>
                        <path d="M44.3579512,6.41467836 L44.3579512,3.8988553 C44.3579512,3.04991168 44.5588232,2.43813592 44.952939,2.06771826 C45.3538354,1.69562451 45.8759329,1.51460593 46.5319451,1.51460593 C47.1888049,1.51460593 47.71175,1.69562451 48.1101037,2.06771826 C48.5050671,2.43813592 48.705939,3.04991168 48.705939,3.8988553 L48.705939,13.833926 C48.705939,14.7138775 48.5050671,15.3407381 48.1101037,15.7069655 C47.71175,16.0790593 47.1888049,16.26343 46.5319451,16.26343 C45.9479756,16.26343 45.4504573,16.0924681 45.0563415,15.7530582 C44.6630732,15.4136484 44.4257561,14.8563458 44.3579512,14.089531 C44.1875915,11.7027675 42.6196037,9.58334158 39.6514451,7.73711966 C35.6492622,5.20704977 31.0987073,3.94410995 25.9921524,3.94410995 C22.6502195,3.94410995 19.4913598,4.5575618 16.5265915,5.77524698 C14.3178476,6.65771256 12.558311,7.73711966 11.2462866,9.01514436 C8.97143293,11.23346 7.16019512,13.6906197 5.81342073,16.3916515 C4.84889634,18.3786657 4.36663415,20.6288272 4.36663415,23.1262132 L4.36663415,29.3956577 C4.36663415,34.7357058 6.71183537,39.3776591 11.405628,43.3156513 C16.0943354,47.2477772 21.5433049,49.2163542 27.7533841,49.2163542 C31.4767195,49.2163542 34.8127195,48.5509433 37.7639268,47.2142552 C40.713439,45.875891 43.5654817,43.8620593 46.3276829,41.1610274 C46.9108049,40.5618224 47.5668171,40.2668291 48.2931768,40.2668291 C48.9152866,40.2668291 49.4153476,40.419354 49.7933598,40.7336224 C50.171372,41.0470527 50.3646159,41.4434499 50.3646159,41.9286803 C50.3646159,42.5815204 49.6170671,43.5779607 48.1380732,44.9129727 C45.306372,47.5285236 42.1280183,49.4954246 38.5919939,50.8145137 C35.0534268,52.1411452 31.4767195,52.7973376 27.8567866,52.7973376 C24.7182683,52.7973376 21.5263537,52.2995365 18.2818902,51.3106387 C15.8019268,50.5413097 13.7465915,49.6454353 12.1269024,48.6205014 C10.5072134,47.5972436 8.51290244,45.8725388 6.15075,43.4396826 C3.78775,41.0110166 2.17568902,38.7675595 1.31456707,36.7076351 C0.450902439,34.6460346 0.0203414634,32.3799501 0.0203414634,29.9060295 L0.0203414634,22.6150033 C0.0203414634,19.0935215 1.1662439,15.4865586 3.4597439,11.8091997 C5.75493902,8.13016463 8.89515244,5.30007321 12.878689,3.32562979 C16.8596829,1.35034833 21.1822439,0.363126626 25.8370488,0.363126626 C33.0125,0.363126626 39.1827439,2.38198663 44.3579512,6.41467836" id="Fill-4" fill="#464747" mask="url(#mask-4)"></path>
                    </g>
                    <path d="M170.653605,30.7848077 L170.461209,35.2876449 L161.470282,51.867606 L154.402471,51.867606 L128.87224,5.57126586 L124.948032,5.57126586 C124.021648,5.57126586 123.359703,5.50673609 122.957112,5.37683849 C122.556215,5.25113114 122.223124,5.0365906 121.962075,4.73740712 C121.698484,4.43822363 121.567959,4.11976501 121.567959,3.78119322 C121.567959,3.43675509 121.698484,3.11913452 121.962075,2.82162713 C122.223124,2.5199295 122.556215,2.30706505 122.957112,2.18051966 C123.359703,2.05481231 124.021648,1.98944449 124.948032,1.98944449 L143.842709,1.98944449 C144.810624,1.98944449 145.483587,2.05481231 145.867532,2.18051966 C146.24724,2.30706505 146.56677,2.5199295 146.832904,2.82162713 C147.088868,3.11913452 147.22024,3.43675509 147.22024,3.78119322 C147.22024,4.11976501 147.080392,4.43822363 146.801545,4.73740712 C146.517612,5.0365906 146.185368,5.25113114 145.803118,5.37683849 C145.421715,5.50673609 144.765703,5.57126586 143.842709,5.57126586 L134.123727,5.57126586 L157.668124,48.2841086 L158.028337,48.2841086 L167.724435,30.4596447 L170.653605,30.7848077 Z" id="Fill-7" fill="#464747"></path>
                    <polygon id="Fill-9" fill="#E1BB47" points="170.540202 2.0170163 161.032263 18.6539648 151.60569 2.02958704"></polygon>
                    <polygon id="Fill-11" fill="#F2854C" points="189.470476 2.00394274 179.96508 18.6400532 170.532574 2.01651347"></polygon>
                    <g id="Group-15" transform="translate(189.006098, 1.313139)">
                        <mask id="mask-6" fill="white">
                            <use xlink:href="#path-5"></use>
                        </mask>
                        <g id="Clip-14"></g>
                        <polygon id="Fill-13" fill="#EC514F" mask="url(#mask-6)" points="19.4053323 0.67764641 9.89654573 17.3145949 0.472515244 0.690217145"></polygon>
                    </g>
                    <polygon id="Fill-16" fill="#326B7F" points="198.909509 18.6465899 189.403265 35.2793482 179.977539 18.6574846"></polygon>
                    <polygon id="Fill-18" fill="#67BFA9" points="189.414198 35.2680345 179.908802 51.9066591 170.479686 35.2797672"></polygon>
                    <polygon id="Fill-20" fill="#6A5269" points="179.96686 18.6502774 170.462311 35.2830356 161.032348 18.661172"></polygon>
                </g>
            </g>
        </g>
    </g>
</svg>